<?xml version="1.0" standalone="no"?>
<!DOCTYPE svg PUBLIC "-//W3C//DTD SVG 20010904//EN"
 "http://www.w3.org/TR/2001/REC-SVG-20010904/DTD/svg10.dtd">
<svg version="1.0" xmlns="http://www.w3.org/2000/svg"
 width="700.000000pt" height="700.000000pt" viewBox="0 0 700.000000 700.000000"
 preserveAspectRatio="xMidYMid meet">
<metadata>
Created by potrace 1.14, written by Peter Selinger 2001-2017
</metadata>
<g transform="translate(0.000000,700.000000) scale(0.100000,-0.100000)"
fill="#000000" stroke="none">
<path d="M0 3500 l0 -3500 3500 0 3500 0 0 3500 0 3500 -3500 0 -3500 0 0
-3500z m6825 0 l0 -3325 -3325 0 -3325 0 -3 3315 c-1 1823 0 3321 3 3328 3 10
674 12 3327 10 l3323 -3 0 -3325z"/>
<path d="M1057 5883 c-4 -3 -7 -384 -7 -845 l0 -838 580 0 581 0 -3 128 -3
127 -427 3 -428 2 0 715 0 715 -143 0 c-79 0 -147 -3 -150 -7z"/>
<path d="M4760 5730 l0 -130 130 0 130 0 0 130 0 130 -130 0 -130 0 0 -130z"/>
<path d="M5300 5730 l0 -130 130 0 130 0 0 130 0 130 -130 0 -130 0 0 -130z"/>
<path d="M5030 4810 l0 -610 135 0 135 0 0 610 0 610 -135 0 -135 0 0 -610z"/>
<path d="M1530 2684 c-168 -31 -281 -79 -363 -154 -112 -102 -152 -201 -145
-359 4 -111 30 -180 94 -251 83 -91 150 -122 429 -195 310 -81 371 -101 417
-143 51 -46 68 -86 68 -159 0 -69 -24 -125 -71 -170 -121 -115 -418 -121 -576
-11 -78 53 -133 155 -133 245 l0 33 -150 0 -151 0 7 -52 c10 -89 33 -168 66
-232 46 -87 146 -183 238 -228 238 -118 598 -111 820 15 274 155 331 526 114
742 -75 76 -143 104 -434 179 -340 89 -412 126 -440 224 -23 83 -4 148 58 203
62 55 132 74 257 73 118 -1 194 -25 257 -82 48 -44 69 -81 83 -152 l12 -55
146 -3 147 -3 -1 38 c0 21 -8 68 -17 104 -47 180 -196 314 -409 370 -75 20
-267 33 -323 23z"/>
<path d="M4685 1815 c-176 -460 -322 -840 -323 -845 -3 -7 49 -10 149 -8 l152
3 22 60 c12 33 48 133 80 223 l57 162 337 0 336 0 79 -225 80 -225 158 0 158
0 -20 53 c-11 28 -157 408 -324 842 l-305 790 -158 3 -158 2 -320 -835z m604
187 c66 -191 121 -353 121 -360 0 -9 -62 -12 -250 -12 -193 0 -250 3 -250 13
0 20 243 707 250 707 4 0 62 -157 129 -348z"/>
</g>
</svg>
